<svg version="1.2" xmlns="http://www.w3.org/2000/svg" viewBox="0 0 1280 1280" width="1280" height="1280">
	<title>146b9e5ff27ff727db7e70c577b96cfc-svg</title>
	<style>
		.s0 { fill: #0074d9 } 
	</style>
	<path id="Layer" fill-rule="evenodd" class="s0" d="m385.4 39.8q1.3 1.1 2.6 2.2 0 1 0 2 1.5 0.5 3 1 0 1 0 2 1 0 2 0c1.7 2.3 3.4 4.6 4.9 7q0.7 1 1.4 2c6.1 9.1 9 19.1 8.9 30.2q0 1.1 0 2.3 0 3.8 0 7.6 0 2.6 0 5.2 0 7-0.1 13.9 0 7 0 14.1 0 13.9-0.1 27.7 3.3-0.9 6.7-1.9c1.8-0.5 1.8-0.5 3.7-1 3.8-1.2 7.4-2.6 11.1-4.1 3.9-1.5 8-2.7 12-3.9 5.6-1.7 11.1-3.6 16.6-5.5q4.5-1.5 9-3 1.8-0.6 3.7-1.2 4.8-1.6 9.5-3.2c1.4-0.4 1.4-0.4 2.8-0.9q2.8-0.9 5.5-1.8 6.8-2.2 13.4-4.8c3.6-1.3 7.2-2.5 10.8-3.6q2.3-0.8 4.7-1.6 1.2-0.4 2.4-0.8 4.1-1.4 8.3-2.8c43.3-14.4 43.3-14.4 47-15.6q3.8-1.3 7.6-2.6c6-2 12-4 18.1-5.8 4.5-1.3 8.7-2.9 12.9-5 3-1.2 6.1-2 9.2-2.9q4.4-1.4 8.7-2.9 1.2-0.4 2.4-0.8 5.1-1.7 10.3-3.4 7.6-2.6 15.2-4.9c3.9-1.2 7.7-2.4 11.4-4 4.7-1.9 9.5-3.4 14.4-4.9 4.8-1.5 9.5-3.2 14.3-4.9 5.6-2 11.2-3.8 17-5.4 2.2-0.6 2.2-0.6 3.3-1.8 2.2-0.2 4.5-0.2 6.7-0.2q1.8-0.1 3.7-0.1c3.9 0.3 6.3 1.4 9.6 3.3q0 1 0 2 0.9 0.4 1.8 0.8c2.3 1.3 3.7 2.6 5.5 4.5 3 3 6.1 5.8 9.4 8.4q0.6 0.7 1.3 1.3 0 1 0 2 1.5 0.5 3 1 0 1 0 2 1 0 2 0 0 1 0 2 1.5 0.5 3 1 0 1 0 2 1 0 2 0 0 1 0 2 1.5 0.5 3 1 0 1 0 2 0.9 0.4 1.7 0.7c2.7 1.5 4.4 3.3 6.6 5.5 2.7 2.8 5.4 5.4 8.4 8 5 4.3 9.6 9 14.2 13.7q2.5 2.5 5 5.1 1.1 1.1 2.3 2.3c1.7 1.8 1.7 1.8 3.8 2.7q0 1 0 2 1 0 2 0c1.6 1.4 1.6 1.4 3 3q0 1 0 2 1 0 2 0 0 1 0 2 1.5 0.5 3 1 0 1 0 2c1 0.4 1 0.4 1.9 0.8 2.1 1.2 2.1 1.2 3.1 4.2q0.8 0.4 1.7 0.8c3.4 1.8 5.8 4.5 8.4 7.3 3.6 3.9 3.6 3.9 7.9 6.9q0 1 0 2 1 0 2 0c1.6 1.4 1.6 1.4 3 3q0 1 0 2c1 0.4 1 0.4 1.9 0.8 2.1 1.2 2.1 1.2 3.1 4.2q2 1.1 4 2c1.6 1.4 1.6 1.4 3.2 3q0.8 0.9 1.7 1.8 0.8 0.8 1.7 1.8 1.8 1.7 3.5 3.5 0.8 0.8 1.5 1.6c1.4 1.4 1.4 1.4 3.4 2.3q0 1 0 2 1.5 0.5 3 1 0 1 0 2 0.9 0.4 1.7 0.7c2.7 1.5 4.5 3.3 6.6 5.4q1.2 1.3 2.5 2.5 1.2 1.3 2.5 2.7c6.7 6.8 6.7 6.8 13.8 13.2q1.4 1.2 2.9 2.5 0 1 0 2 1.5 0.5 3 1 0 1 0 2 1 0 2 0 0 1 0 2 1.5 0.5 3 1 0 1 0 2 1 0 2 0 0 1 0 2 1.5 0.5 3 1 0 1 0 2 1 0 2 0c1.7 2.2 3.3 4.4 4.8 6.8q0.7 1 1.4 2c3.7 5.8 6.6 11.7 8.8 18.2q0.5 1.3 0.9 2.7c4.5 14.5 3.2 30.8 3.2 45.9q0.1 3.3 0.1 6.7 0 9.1 0 18.2 0 5.6 0 11.3 0 18.8 0 37.6c0 1 0 1 0 2.1 0 1 0 1 0 2q0 16.4 0 32.9 0 16.9 0 33.8 0 9.4 0 18.9 0.1 8.9 0 17.8 0 3.2 0.1 6.5 0 4.5-0.1 8.9 0.1 1.3 0.1 2.6c-0.1 7.4-0.4 15-5.7 20.5q-0.9 1-1.8 2c-4.4 4-8.1 4.4-13.8 4.6-4.8-0.3-8.1-1.1-12-4q0-1 0-2-1 0-2 0c-5-5.5-5.7-10.9-5.6-18.1 0-1.5 0-1.5 0-3q0-5 0-9.9 0-3.6 0-7.1 0-8.7 0-17.3 0.1-10.1 0.1-20.2-0.1-18.1 0-36.1 0-1.1 0-2.2 0-8.7 0-17.5 0-7.6 0-15.2 0-1.1 0-2.2 0.1-18 0-35.9 0-12.1 0.1-24.1 0-7.5 0-15 0-3.5 0-7c0.1-14.7 0.1-27.8-10.6-39.2q0-1 0-2-1 0-2 0c-1.7-1.6-3.4-3.3-5-5q-2-2-4-4.1-1.1-1.1-2.2-2.2-1.2-1.1-2.3-2.3-1.1-1.1-2.3-2.2c-3-3.1-5.9-6-9.2-8.6q-1-0.8-2-1.6 0-1 0-2-1 0-2 0c-1.6-1.4-1.6-1.4-3-3q0-1 0-2c-1-0.4-1-0.4-1.9-0.8-2.1-1.2-2.1-1.2-3.1-4.2q-1-0.5-2-1c-2-1-2-1-3-4-0.8-0.4-0.8-0.4-1.7-0.8-3.4-1.8-5.8-4.5-8.4-7.3-3.6-3.9-3.6-3.9-7.9-6.9q0-1 0-2-1 0-2 0c-1.6-1.4-1.6-1.4-3-3q0-1 0-2c-1-0.4-1-0.4-1.9-0.8-2.1-1.2-2.1-1.2-3.1-4.2q-2-1.1-4-2c-1.6-1.4-1.6-1.4-3.2-3q-0.8-0.9-1.7-1.7-0.8-0.9-1.7-1.9-1.8-1.7-3.5-3.5-0.8-0.8-1.5-1.6c-1.4-1.4-1.4-1.4-3.4-2.3q0-1 0-2-1.5-0.5-3-1 0-1 0-2-1 0-2 0 0-1 0-2-0.9-0.4-1.8-0.8c-2.5-1.3-4.1-2.9-6.1-5-1.1-1.1-1.1-1.1-2.3-2.2-1.1-1.2-1.1-1.2-2.2-2.4-5.6-5.7-5.6-5.7-11.6-11q-1-0.8-2-1.6 0-1 0-2-1 0-2 0 0-1 0-2-1.5-0.5-3-1 0-1 0-2-1 0-2 0 0-1 0-2-1.5-0.5-3-1 0-1 0-2-1 0-2 0 0-1 0-2c-0.9-0.4-0.9-0.4-1.7-0.7-2.3-1.3-2.3-1.3-6.3-5.3-0.5 228.7-0.5 228.7-1 462 108.3-0.1 108.3-0.1 216.6-0.3 21 0 21 0 30.8 0q10.2 0 20.5 0 11.9 0 23.7 0 6.1 0 12.1-0.1 5.5 0 11 0 2.9 0 5.8 0c17.9 0.1 34.8 4.9 48.3 17 1.2 1.4 1.2 1.4 1.2 3.4q1 0 2 0c12.1 13.8 16.5 29.5 16.4 47.5q0 2 0 4 0 5.4-0.1 10.8 0 5.8 0 11.7 0 10.1 0 20.2 0 14.6 0 29.2 0 23.7-0.1 47.4 0 23 0 46 0 1.4 0 2.9 0 7.1 0 14.2-0.1 59.1-0.2 118.1 1.9-0.2 3.8-0.5c18.4-2.4 40.9-0.9 58 6.5 2.1 1 4.2 1.6 6.5 2.3 6.7 2.1 12.7 6.1 18.7 9.7q1.4 0.8 2.9 1.6c1.1 0.7 1.1 0.7 2.1 1.4q0 1 0 2 1.5 0 3 0 0 1 0 2 2 0.5 4 1 0 1 0 2 0.9 0.4 1.8 0.8c2.3 1.2 4.2 2.5 6.2 4.2q0 1 0 2 1 0 2 0c4.8 4.7 9.4 10.3 13 16q0 1 0 2 1 0 2 0c10.1 13.5 15.7 29.8 18.6 46.2 0.2 1.8 0.2 1.8 1.4 2.8q0.2 3.1 0.2 6.2 0 1 0 2 0 3.3 0 6.6 0 2.3 0.1 4.7 0 7.8 0 15.5c0 1.4 0 1.4 0.1 2.7q0 12.5 0 25 0.1 16 0.2 32 0.1 11.2 0.1 22.4 0 6.7 0.1 13.5 0 6.3 0 12.6 0 2.3 0 4.6c0.2 12.3-2.5 22.7-10.8 32.2q-1 0-2 0 0 1 0 2-1 0-2 0-0.5 1.5-1 3-1 0-2 0 0 1 0 2c-9.5 7.7-21.9 10.3-33.8 10.3q-1.2 0-2.5 0-4.2 0-8.5 0-3 0-6.1 0-8.5 0-16.9 0-9.2 0-18.4 0-16.1 0-32.3 0-17.3 0-34.6 0-1 0-2.2 0-4.4 0-8.9 0-45.1 0-90.3 0-6.3 0-12.5 0c-1.3 0-1.3 0-2.5 0q-27.5 0-55 0-6.3 0-12.5 0-2.6 0-5.1 0-1.2 0-2.5 0-2.5 0-5 0-71.7 0-143.3 0-1.4 0-2.7 0-14.8 0-29.6 0-1.3 0-2.7 0c-7.4 0-7.4 0-10.8 0q-85.5 0-170.9 0-21.5 0-43.1 0.1-1.3 0-2.6 0-40.9 0-81.8 0-1.2 0-2.5 0-28.2 0-56.3 0-10.1 0-20.2 0-2.5 0-5 0-40 0-79.9 0-41.3 0-82.7 0-4.4 0-8.9 0-1 0-2.2 0-17.2 0-34.5 0-16.9 0-33.9 0-9.1 0-18.1 0-8.3 0-16.5 0-3 0-6 0c-15.7 0-28.8-1.5-42.2-10.4q0-1 0-2-1.5-0.5-3-1 0-1 0-2-1 0-2 0 0-1 0-2-1.5-0.5-3-1c-1.8-2.5-1.8-2.5-3.6-5.7q-0.9-1.6-1.8-3.2c-2.5-4.8-3.9-8.4-3.8-13.8q-0.1-1.7-0.1-3.4 0.1-1.9 0.1-3.8 0-1.9 0-3.9-0.1-5.4 0-10.7 0-5.6 0-11.2 0-9.5 0-18.9 0-10.9 0-21.8 0-10.4 0-20.9 0-4.5 0-8.9 0-6.2 0.1-12.5 0-1.8 0-3.7 0-1.7 0-3.4 0-1.5 0-3c0.1-2.2 0.1-2.2 1.1-3.2q0.3-2.1 0.4-4.1c0.5-4.2 1.3-7.9 2.6-11.9q0.3-1.2 0.7-2.4c1.3-4.8 2.9-9.1 5.3-13.5 1.1-2.3 2-4.6 2.9-7 1.8-4.6 4.1-8.6 6.7-12.8q1.7-2.9 3.3-5.8c2.7-4.7 5.7-9.3 9.1-13.5q1 0 2 0 0.3-0.8 0.7-1.6c1.7-3.1 4-5.6 6.4-8.2q0.8-0.8 1.5-1.6c3.9-4.1 7.8-8.3 12.4-11.6q1 0 2 0 0-1 0-2c2.2-1.7 4.3-3.3 6.6-4.9q0.9-0.6 1.8-1.3c7.1-5 14.8-9 22.6-12.8q1.5-0.7 3-1.5c11.9-5.7 24.2-8.7 37-11.5q1.1-0.3 2.2-0.5c3.7-0.6 7.4-0.6 11.1-0.6q1.1 0 2.3 0.1 2.7 0 5.4 0 0-0.9 0-1.7-0.1-92.8-0.1-185.5 0-1.4 0-2.8 0-30.1-0.1-60.2 0-14.8 0-29.6 0-1.4 0-2.9 0-47.7 0-95.3-0.1-48.9-0.1-97.9 0-6.9 0-13.8c0-1.4 0-1.4 0-2.8q0-21.8 0-43.7 0-22.1 0-44.1 0-13.1-0.1-26.1 0-8.8 0-17.5 0-5 0-10c-0.1-23.9 1.6-46.2 16.4-66.1q1 0 2 0 1-2.5 2-5 1 0 2 0 0.4-0.9 0.8-1.8c1.3-2.4 2.6-3.7 4.7-5.4q0.9-0.8 1.8-1.6c1.7-1.2 1.7-1.2 3.7-1.2q0-1 0-2c11.7-7.1 23.4-12 36.6-16 3.7-1.1 7.3-2.3 10.9-3.5q7.1-2.4 14.4-4.6c3.6-1.1 7.1-2.3 10.5-3.9 4.9-2.3 10.1-3.6 15.3-5.1 2.7-0.7 5.3-1.6 7.9-2.6 2.8-1.1 5.4-1.7 8.4-2.3 0-0.8 0-0.8 0-1.7q0-20.7-0.1-41.3 0-10 0-20 0-9.7 0-19.3 0-3.7 0-7.4c-0.1-36.7-0.1-36.7 5.1-46.3q0.6-1.7 1.3-3.4c7.1-14.7 19.5-24.1 34.5-29.5 20.7-6.9 40.8-2.3 58.6 9.7zm-55.4 34.2q0 1 0 2-1 0-2 0c-2.6 4.9-2.3 9.7-2.2 15.1q0 1.5 0 3.1 0 5 0 10 0 3.5 0 7 0 9.2 0.1 18.4 0 9.3 0 18.7 0 18.3 0.1 36.7 3.1-0.7 6.2-1.4 1.7-0.4 3.5-0.8c3.7-0.9 7.1-2.2 10.7-3.8 4.1-1.6 8.3-2.8 12.5-4 3.2-1 6.1-2.5 9.1-4q0-16.4 0.1-32.9 0-7.6 0-15.3 0-7.3 0-14.7 0-2.8 0-5.6 0-4 0-7.9c0-1.2 0-1.2 0-2.3 0.1-9.5 0.1-9.5-4.3-17.5-0.9-1-0.9-1-1.8-2-4.8-4.4-8.9-5.4-15.3-5.4q-1.1 0-2.3 0c-6 0.2-10.6 1.6-14.4 6.6zm369 28q-3.5 1-7 2-3.5 1.1-7 2.3-2 0.7-4 1.3-1 0.4-2 0.7-4.7 1.6-9.5 3.2c-1.9 0.6-1.9 0.6-3.7 1.3-11.3 3.7-11.3 3.7-15 4.9q-3.8 1.3-7.6 2.6c-6 2-12 4-18.1 5.8-4.5 1.3-8.8 3-13.1 5-2.9 1.3-5.9 2.1-9 2.9q-2.9 1.1-5.8 2.2c-1.8 0.7-3.6 1.2-5.4 1.7-4.2 1.2-8.3 2.6-12.5 4q-2.4 0.8-4.8 1.6-1.2 0.4-2.3 0.8-4.2 1.4-8.4 2.8-1.4 0.4-2.8 0.9c-11.3 3.8-11.3 3.8-22.5 7.5q-1.2 0.4-2.4 0.8-2.3 0.8-4.6 1.5-4.9 1.7-9.9 3.3-7.6 2.6-15.2 4.9c-4.7 1.4-9.3 3.1-13.8 5-4.1 1.6-8.3 2.8-12.6 4.1-3.7 1.1-7.3 2.5-11 3.9q-2 0.8-4.1 1.6-0.8 0.3-1.7 0.7c-3.1 1-6.1 1.8-9.2 2.7q-3.5 1.1-7 2.3-2 0.7-4 1.4-1 0.3-2 0.6-4.7 1.6-9.3 3.1-1.9 0.6-3.7 1.3-4.3 1.4-8.5 2.8-1.2 0.4-2.4 0.8-2.3 0.8-4.6 1.5-4.9 1.7-9.9 3.3-7.6 2.6-15.3 4.9c-4.6 1.4-8.9 3.1-13.3 5.1-2.9 1.3-5.9 2.1-9 2.9q-2 0.7-4 1.5c-3.6 1.4-7.3 2.4-11 3.5q-2 0.7-4 1.5c-3.6 1.4-7.3 2.4-11 3.5q-2.9 1.1-5.8 2.2c-1.8 0.7-3.6 1.2-5.4 1.7-4.1 1.2-8.1 2.5-12 3.9q-9.9 3.3-19.8 6.3c-5.7 1.8-11.3 3.7-16.8 6-4.8 1.9-9.8 3.2-14.7 4.6-4.2 1.2-8.3 2.6-12.4 4.3-3.5 1.4-7 2.6-10.6 3.5-4.5 1.2-8.7 2.7-13 4.5-2.7 1.1-5.4 2-8.1 2.9-4.8 1.8-9.5 3.8-13.4 7.1q0 1 0 2-1 0-2 0c-12.2 13.1-12.3 28.9-12.2 45.9q-0.1 2.3-0.1 4.7 0 6.4 0 12.8 0.1 7 0 14 0 12.3 0 24.5 0.1 18.2 0.1 36.4-0.1 30.7 0 61.3 0 30.3 0 60.7 0 1.8 0 3.8 0 7.6 0 15.3 0 53.4 0 106.9 0 1 0 2 0 16.3 0 32.7 0 64.9 0 129.8 0 2 0 4.1 0 4.1 0 8.2 0 9.1 0 18.3 0 2.1 0 4.1 0 54.4 0 108.7 0 1.9 0 3.8 0 7.6 0 15.3 0 26.5 0 53.1 0 34.2 0 68.4 0.1 18.1 0.1 36.2 0 12.1 0 24.2 0 6.8 0 13.7 0 6.3 0 12.6 0 2.2 0 4.5 0 3 0 6.1 0 1.7 0 3.4c-0.2 2.4-0.2 2.4 1.1 3.5q4.5 0.1 8.9 0.1 1.4 0 2.9 0 4.6 0 9.3 0 3.2 0 6.5 0 8.5 0 17 0 8.6 0 17.3 0 17.1-0.1 34.1-0.1 0-1 0-2.1 0.2-25.6 0.3-51.2 0.1-12.4 0.2-24.8 0.1-10.8 0.1-21.5 0.1-5.8 0.1-11.5 0-5.4 0.1-10.7 0-2.9 0-5.8c0.2-22.7 0.2-22.7 4.4-30.6 1-1.9 1-1.9 0.8-4.8q1 0 2 0c2.3-3.2 2.3-3.2 3-7q1 0 2 0c1.7-1.3 1.7-1.3 3-3q0-1 0-2c0.9-0.4 0.9-0.4 1.7-0.8 2.3-1.2 4.5-2.4 6.7-3.7 5.1-2.8 9.8-4.5 15.4-5.9 3.5-0.9 7.1-1.9 10.6-2.9q2.4-0.7 4.7-1.3c1.3-0.4 1.3-0.4 2.5-0.7q5.7-1.6 11.4-3.2 2.3-0.6 4.5-1.2c9-2.5 9-2.5 11.3-3.2q2.2-0.6 4.4-1.2 5.8-1.6 11.6-3.2 2.4-0.7 4.8-1.3 1.1-0.3 2.3-0.7c4.5-1.2 8.9-2.6 13.3-4.1 2.9-0.9 5.8-1.2 8.8-1.6q2.5-0.9 5-2c3.2-1.2 6.1-2 9.6-2.5 3.2-0.5 5.5-1.2 8.4-2.5 3.2-1.2 6.1-2 9.6-2.5 3.3-0.3 3.3-0.3 5.6-1.4 3.7-1.4 7.4-2.4 11.2-3.5q2.5-0.6 4.9-1.3 1.2-0.3 2.4-0.7 4.9-1.3 9.7-2.7 1.7-0.5 3.4-1 3.1-0.9 6.1-1.8c12.4-3.8 23.4-2.8 35.1 2.9 10.2 6.5 16.7 15.3 20 27 0.2 2.8 0.3 5.6 0.3 8.4q0 1.2 0 2.5 0 4.2 0 8.3 0 3 0 6 0.1 8.1 0.1 16.2 0 8.5 0.1 16.9 0 16.1 0.1 32.1 0.1 21.7 0.2 43.3 0.1 34.2 0.2 68.3c52.5 0 104.9 0 159 0 0-142.2 0-284.5 0-431-6.8 1.8-11.9 3.3-18 6q-3.5 1-7 2-2 0.7-4 1.5c-3.6 1.4-7.3 2.4-11 3.5q-2 0.7-4 1.5c-3.6 1.4-7.3 2.4-11 3.5q-2.9 1.1-5.8 2.2c-3 1.1-6.1 1.9-9.2 2.8q-3.5 1.1-7 2.3-2 0.7-4 1.3-1 0.4-2 0.7-4.7 1.6-9.5 3.2-1.8 0.6-3.7 1.3c-11.3 3.7-11.3 3.7-15 4.9q-3.8 1.3-7.6 2.6c-6 2-12 4-18 5.8-4.7 1.4-9.1 3-13.6 4.9-4 1.6-8.2 2.8-12.3 4-3.1 1-6.2 2.1-9.2 3.2-3.5 1.3-6.9 2.5-10.4 3.6q-1.2 0.4-2.3 0.8-9.9 3.2-19.9 6.3c-4.2 1.3-8.4 2.8-12.6 4.4-3.7 1.4-7.6 2.6-11.4 3.8-3.3 1.1-6.5 2.3-9.7 3.7-5.8 1.8-11.4 2.5-17.1 0.4-5.1-2.9-8.7-6.7-10.7-12.2-1.1-6.4-0.8-11.5 2.7-17.1 4.4-6.1 10.6-7.8 17.6-9.9 5.3-1.6 10.6-3.3 15.8-5.3 3-1.1 6-2.1 9-3.1q1.9-0.6 3.9-1.3 1-0.3 2-0.6 4.8-1.6 9.5-3.2c15-5 15-5 18.7-6.2q3.8-1.3 7.6-2.6c6-2 12-4 18.1-5.8 4.5-1.3 8.8-3 13.1-5 2.9-1.3 5.9-2.1 9-2.9q2.9-1.1 5.8-2.2c3-1.1 6.1-1.9 9.2-2.8q3.5-1.1 7-2.3 1-0.3 2-0.7 3.9-1.3 7.9-2.7c6.6-2.2 13.2-4.4 19.9-6.4 3.8-1.1 7.5-2.4 11.2-3.9 4.7-2 9.6-3.5 14.5-4.9q5.7-1.8 11.3-3.7c1.8-0.5 1.8-0.5 3.6-1.2q3.8-1.3 7.5-2.7c4.2-1.6 8.4-3 12.7-4.4q1.1-0.4 2.3-0.7 4.7-1.6 9.4-3.1 2.1-0.8 4.2-1.5 2.8-0.9 5.7-1.8c2.7-0.9 2.7-0.9 4.8-2 0-30.7 0-61.4 0-93-7.2 1.5-7.2 1.5-13.6 4-3.8 1.8-7.4 2.9-11.4 4q-2.9 1.1-5.8 2.2c-3 1.1-6.1 1.9-9.2 2.8q-3.5 1.1-7 2.3-2 0.7-4 1.3-1 0.4-2 0.7-4.7 1.6-9.5 3.2-1.8 0.6-3.7 1.3c-11.3 3.7-11.3 3.7-15 4.9q-3.8 1.3-7.6 2.6c-6 2-12 4-18.1 5.8-4.5 1.3-8.8 3-13.1 5-2.9 1.3-5.9 2.1-9 2.9q-2 0.7-4 1.5c-3.6 1.4-7.3 2.4-11 3.5q-2.9 1.1-5.8 2.2c-3 1.1-6.1 1.9-9.2 2.8q-3.5 1.1-7 2.3-2 0.7-4 1.3-1 0.4-2 0.7-4.7 1.6-9.5 3.2-1.8 0.6-3.7 1.3c-11.3 3.7-11.3 3.7-15 4.9q-3.8 1.3-7.6 2.6c-6 2-12 4-18.1 5.8-4.5 1.3-8.8 3-13.1 5-2.9 1.3-5.9 2.1-9 2.9q-2 0.7-4 1.5c-3.6 1.4-7.3 2.4-11 3.5q-2 0.7-4 1.5c-3.6 1.4-7.3 2.4-11 3.5q-2.9 1.1-5.8 2.2c-1.8 0.7-3.6 1.2-5.4 1.7-4.1 1.2-8.1 2.5-12 3.9q-9.9 3.3-19.8 6.3c-5.7 1.8-11.2 3.7-16.7 6-3.5 1.4-7 2.2-10.6 3.1-3.5 1-6.7 2.4-10.1 3.8-3.9 1.5-7.9 2.7-12 3.9-4.9 1.5-9.7 3.2-14.6 5-15.6 5.6-15.6 5.6-23.5 2.5-4.7-2.3-8.4-4.4-10.5-9.4-0.8-7.1-1.2-14.4 2-21q1 0 2 0 0.9-0.9 1.8-1.8c6.1-6 16.8-7.8 24.8-10.2q14.4-4.3 28.4-9.8 1-0.4 2.1-0.8 0.8-0.3 1.7-0.7 2.7-0.9 5.4-1.6c4.2-1.2 8.3-2.6 12.5-4q2.4-0.8 4.8-1.6 1.2-0.4 2.3-0.8 4.2-1.4 8.4-2.8 1.4-0.4 2.8-0.9c25.5-8.5 25.5-8.5 29.2-9.7q3.8-1.3 7.6-2.6c6-2 12-4 18.1-5.8 3.6-1.1 7.1-2.3 10.5-3.9 4.9-2.3 9.9-3.6 15.1-5 3.2-0.9 6.3-2 9.4-3.2 3.5-1.3 7-2.5 10.5-3.6q1.1-0.4 2.3-0.8 4.8-1.6 9.6-3.2c8.2-2.7 16.4-5.4 24.5-8.3 5.9-2.1 11.8-4 17.8-5.8 4.8-1.5 9.4-3.2 14.1-4.9 5.4-1.9 10.8-3.6 16.3-5.2 3-1 5.9-2.1 8.9-3.2 3.6-1.3 7.2-2.5 10.9-3.7q2.3-0.8 4.7-1.6 1.2-0.4 2.4-0.8 4.1-1.4 8.3-2.8c1.4-0.4 1.4-0.4 2.8-0.9q3.3-1.1 6.6-2.2 1.9-0.7 3.8-1.3 1-0.3 2-0.6 6.1-2.1 12.4-4c3.8-1.1 7.5-2.4 11.2-3.9 4.7-2 9.6-3.5 14.5-4.9q5.7-1.8 11.3-3.7c1.8-0.5 1.8-0.5 3.6-1.2q3.8-1.2 7.5-2.7c4.4-1.6 8.9-3.1 13.5-4.6q2.4-0.8 4.7-1.6c1.1-0.3 1.1-0.3 2.1-0.7 1.9-0.6 1.9-0.6 3.8-1.6 0-30.7 0-61.4 0-93-7.2 1.5-7.2 1.5-13.6 4-3.8 1.8-7.4 2.9-11.4 4q-2 0.7-4 1.5c-3.6 1.4-7.3 2.4-11 3.5q-2.9 1.1-5.8 2.2c-1.8 0.7-3.6 1.2-5.4 1.7-4.2 1.2-8.3 2.6-12.5 4q-1.2 0.4-2.4 0.8-5.1 1.7-10.3 3.4-7.6 2.6-15.3 4.9c-4.6 1.4-8.9 3.1-13.3 5.1-2.9 1.3-5.9 2.1-9 2.9q-2.9 1.1-5.8 2.2c-1.8 0.7-3.6 1.2-5.4 1.7-4.2 1.2-8.3 2.6-12.5 4q-2.4 0.8-4.8 1.6-1.2 0.4-2.3 0.8-4.2 1.4-8.4 2.8-1.4 0.4-2.8 0.9c-40.5 13.5-40.5 13.5-44.2 14.7q-3.8 1.3-7.6 2.6c-6 2-12 4-18 5.8-4.7 1.4-9.1 3-13.6 4.9-4.1 1.6-8.3 2.8-12.6 4.1-3.7 1.1-7.3 2.5-11 3.9q-2 0.8-4.1 1.6-0.8 0.3-1.7 0.7c-1.8 0.6-3.6 1.1-5.4 1.6-4.1 1.2-8.1 2.5-12 3.9q-9.9 3.3-19.8 6.3c-5.7 1.8-11.2 3.7-16.7 6-3.5 1.4-7 2.2-10.6 3.1-3.5 1-6.7 2.4-10.1 3.8-3.9 1.5-7.9 2.7-12 3.9-4.1 1.2-8.1 2.7-12.1 4.1q-9.2 3.3-18.6 6.1c-2.7 0.8-5.2 1.7-7.8 2.7-6.8 2.2-10.9 1.1-17.1-1.9-1.9-1-1.9-1-4-0.9-0.4-0.9-0.4-0.9-0.9-1.8-1.1-2.4-1.1-2.4-3.1-5.2-0.2-2.7-0.3-5.2-0.2-7.9q-0.1-1-0.1-2.1c0-4.1 0.5-7.3 2.3-11q1 0 2 0 0.9-0.9 1.8-1.8c2.6-2.5 4.7-3.5 8.1-4.7q1.8-0.6 3.5-1.3c4.4-1.5 8.7-2.8 13.1-4.1 4-1.3 8-2.7 12-4.1 6.2-2.2 12.4-4.2 18.7-6.1 3.7-1.2 7.2-2.5 10.8-3.9q2-0.8 4.1-1.6 0.8-0.3 1.7-0.7 2.7-0.9 5.4-1.6c4.1-1.2 8.1-2.5 12.1-3.8q9.8-3.3 19.7-6.4c5.7-1.8 11.2-3.7 16.6-6 3.9-1.5 7.9-2.6 11.9-3.8 5.6-1.7 11.1-3.6 16.6-5.4q2.9-1 5.9-2 1-0.3 2-0.7 2.8-0.9 5.6-1.8c3.4-1.2 3.4-1.2 6.9-2.7 3.5-1.5 6.8-2.5 10.4-3.5 4.5-1.2 8.7-2.6 13-4.2 3.6-1.4 7.2-2.5 10.9-3.7q2.3-0.8 4.7-1.6 1.2-0.4 2.4-0.8 4.2-1.4 8.4-2.8 6.1-2.1 12.3-3.9c3.9-1.2 7.7-2.4 11.4-4 4.7-1.9 9.5-3.4 14.4-4.9 4.1-1.2 8.1-2.7 12.1-4.1 6.2-2.2 12.4-4.2 18.7-6.1 3.7-1.2 7.2-2.5 10.8-3.9q2-0.8 4.1-1.6 0.8-0.3 1.7-0.7c1.8-0.6 3.7-1.1 5.5-1.6 3.6-1.1 7.1-2.2 10.7-3.4q2-0.7 4-1.3 1-0.4 2-0.7 4.8-1.6 9.5-3.2 5.7-1.9 11.3-3.8c6-2 12-3.9 18-5.8 4.7-1.4 9.1-3 13.6-4.9 3.9-1.5 7.9-2.6 11.8-3.8 5.7-1.8 11.2-4.1 16.8-6.2 0-30.7 0-61.4 0-93-6.2 1.4-10 2.4-15.4 4.9-4.3 1.8-8.7 2.9-13.2 4.1-3.7 1.1-7.3 2.5-10.9 4-3.9 1.6-8 2.7-12 3.9-3.7 1.2-7.3 2.4-11 3.6q-7.1 2.4-14.4 4.6c-4.5 1.3-8.8 3-13.1 5-2.9 1.3-5.9 2.1-9 2.9q-2.9 1.1-5.8 2.2c-1.8 0.7-3.6 1.2-5.4 1.7-4.2 1.2-8.3 2.6-12.5 4q-2.4 0.8-4.8 1.6-1.2 0.4-2.3 0.8-4.2 1.4-8.4 2.8-1.4 0.4-2.8 0.9c-25.5 8.5-25.5 8.5-29.2 9.7q-3.8 1.3-7.6 2.6c-6 2-12 4-18.1 5.8-4.5 1.3-8.8 3-13.1 5-2.9 1.3-5.9 2.1-9 2.9q-2 0.7-4 1.5c-3.6 1.4-7.3 2.4-11 3.5q-2.9 1.1-5.8 2.2c-3 1.1-6.1 1.9-9.2 2.8q-3.4 1.1-6.8 2.3-2 0.6-4 1.3-2.1 0.7-4.2 1.4-4.4 1.5-8.7 2.9-1.2 0.4-2.3 0.8-8.5 2.8-17 5.4c-5.7 1.8-11.2 3.7-16.7 6-2.6 1-5.2 1.7-7.9 2.4-4.3 1.1-8.1 2.6-12.1 4.5-3.1 1.3-6.1 2.1-9.3 3-7.3 2-14.4 4.1-21.4 7-4.1 1.6-8.3 2.8-12.6 4.1-4.4 1.3-8.7 3-13 4.7-15.5 6-15.5 6-22.3 3.3q-2.4-1.1-4.7-2.2c-1.9-1-1.9-1-4-0.9q-0.4-0.9-0.9-1.8c-1.1-2.4-1.1-2.4-3.1-5.2-0.2-2.7-0.3-5.2-0.2-7.9-0.1-1-0.1-1-0.1-2.1 0-4.1 0.5-7.3 2.3-11q1 0 2 0 0.8-0.9 1.7-1.8c6.5-6.2 17.3-7.7 25.7-10.2 5.8-1.8 11.4-3.7 17-6 4-1.5 8-2.7 12.1-3.9q14.4-4.4 28.5-9.9 1-0.4 2.1-0.8 0.8-0.3 1.7-0.7 2.7-0.9 5.4-1.6c4.1-1.2 8.1-2.5 12.1-3.8q9.8-3.3 19.7-6.4c5.7-1.8 11.2-3.7 16.6-6 3.9-1.5 7.9-2.6 11.9-3.8 5.6-1.7 11.1-3.6 16.6-5.5q4.5-1.5 9-3 1.8-0.6 3.7-1.2 4.8-1.6 9.5-3.2c1.4-0.4 1.4-0.4 2.8-0.9q2.8-0.9 5.5-1.8c4.5-1.5 9-3.1 13.5-4.8 3.3-1.2 6.8-2.4 10.2-3.5q1.2-0.4 2.3-0.8c5.8-1.9 11.6-3.7 17.4-5.5 5.7-1.8 11.2-3.7 16.6-6 3.9-1.5 7.9-2.6 11.9-3.8 3.7-1.2 7.3-2.4 11-3.6q7.1-2.4 14.4-4.6c4.5-1.3 8.8-3 13.1-5 2.9-1.3 5.9-2.1 9-2.9q2.9-1.1 5.8-2.2c1.8-0.7 3.6-1.2 5.4-1.7 4.1-1.2 8.1-2.5 12.1-3.8q9.8-3.4 19.7-6.4c5.7-1.8 11.2-3.7 16.8-6 3.4-1.4 6.9-2.2 10.5-3.1 3.5-1 6.9-2.4 10.3-3.8 3.1-1.3 6.3-2.3 9.6-3.4 1.9-0.6 1.9-0.6 3.8-1.6 0-30.7 0-61.4 0-93-6.2 1.4-10 2.4-15.4 4.9-4.3 1.8-8.8 2.9-13.3 4.2-3.1 0.9-6.1 1.9-9.1 3.1-7.9 2.9-15.9 5.4-24 7.9-4.7 1.4-9.1 3-13.6 4.9-3.9 1.5-8 2.7-12 3.9-4.1 1.2-8.1 2.7-12.1 4.1-6.1 2.2-12.2 4.2-18.5 6-3 1-5.9 2.1-8.9 3.2-3.6 1.4-7.2 2.5-10.8 3.7q-2.4 0.8-4.8 1.6-1.2 0.4-2.4 0.8-4.1 1.4-8.3 2.8c-6.5 2.2-6.5 2.2-13.1 4.3q-0.9 0.3-1.9 0.7-4.9 1.6-9.8 3.2-1 0.4-2.1 0.7-2.7 0.9-5.5 1.8c-2.4 0.9-4.7 1.8-7.1 2.8-3.4 1.4-6.8 2.4-10.3 3.4q-2 0.7-4 1.5c-3.6 1.4-7.3 2.4-11 3.5q-2.9 1.1-5.8 2.2c-3 1.1-6.1 1.9-9.2 2.8q-3.5 1.1-7 2.3-2 0.7-4 1.4-1 0.3-2 0.6-4.7 1.6-9.3 3.1c-1.9 0.7-1.9 0.7-3.7 1.3q-4.3 1.4-8.5 2.8-1.2 0.4-2.4 0.8-2.3 0.8-4.6 1.5-4.9 1.7-9.9 3.3-7.6 2.6-15.2 4.9c-4.7 1.4-9.3 3.1-13.8 5-4.1 1.6-8.3 2.8-12.6 4.1-2.4 0.7-4.6 1.5-6.9 2.4-3.6 1.4-7.3 2.4-11 3.4-4.9 1.4-9.4 2.9-13.9 5.2-3 1.3-6.1 2-9.2 2.9q-4.6 1.5-9.1 3-1.2 0.4-2.4 0.8c-3.9 1.3-7.7 2.7-11.5 4.2-7.3 2.3-13.3 2.7-20.4-0.6-1.3-0.7-1.3-0.7-2.6-1.4q-1 0-2 0-0.4-0.9-0.9-1.8c-1.1-2.4-1.1-2.4-3.1-5.2-0.2-2.7-0.3-5.2-0.2-7.9-0.1-1-0.1-1-0.1-2.1 0-4.1 0.5-7.3 2.3-11q1 0 2 0c0.9-0.9 0.9-0.9 1.8-1.9 2.6-2.4 4.5-3.1 8-4.2 1.6-0.5 1.6-0.5 3.2-1q1.5-0.4 3-0.9 1.9-0.7 3.8-1.4c8.5-3.3 17.3-6 26-8.7 4.7-1.4 9.1-3 13.6-4.9 3.9-1.5 8-2.7 12-3.9 4.1-1.2 8.1-2.7 12.1-4.1 6.1-2.2 12.2-4.2 18.5-6 3-1 5.9-2.1 8.9-3.2 3.5-1.3 6.9-2.5 10.4-3.6q1.2-0.4 2.3-0.8c5.8-1.9 11.6-3.7 17.4-5.5 5.7-1.8 11.2-3.7 16.8-6 3.4-1.4 6.9-2.2 10.5-3.1 2.6-0.8 5.1-1.7 7.6-2.7 4.8-2 9.6-3.5 14.6-5q5.7-1.8 11.3-3.7 1.8-0.5 3.6-1.2 3.8-1.3 7.5-2.7c4.1-1.5 8.3-2.9 12.4-4.3q1.2-0.4 2.3-0.8c5.8-1.9 11.6-3.7 17.4-5.5 5.7-1.8 11.2-3.7 16.8-6 3.4-1.4 6.9-2.2 10.5-3.1 3.5-1 6.7-2.4 10.1-3.8 3.9-1.5 7.9-2.7 12-3.9 4.1-1.2 8.1-2.7 12.1-4.1 6.2-2.2 12.4-4.2 18.7-6.1 3.7-1.2 7.2-2.5 10.8-3.9 5-1.9 9.9-3.5 15-5q2-0.7 4-1.5c3.6-1.4 7.3-2.4 11-3.5q2.9-1.1 5.8-2.2c3-1.1 6.1-1.9 9.2-2.8q3.5-1.1 7-2.3 2-0.7 3.9-1.3 1-0.4 2-0.7 3.2-1.1 6.3-2.1c1-0.3 1-0.3 2-0.6q2.8-1 5.7-1.9c3.3-1.1 3.3-1.1 7.1-3.1 0-32.7 0-65.3 0-99-3.3 0-5 0.8-8 2zm49 521c0 156.1 0 312.2 0 473 90.4 0 180.8 0 274 0 0.3-10.9 0.7-21.8 1-33 5.1-25.6 13-46.6 30.1-66.6 1.9-2.3 1.9-2.3 3-4.7 0.9-1.7 0.9-1.7 3.9-2.7q0-1 0-2 0.9-0.4 1.7-0.8c2.4-1.2 4.4-2.6 6.6-4.2q1-0.8 2.1-1.6 0.8-0.7 1.6-1.4 0-1 0-2 1.1-0.4 2.2-0.8c2.9-1.3 5.4-2.8 8.1-4.6 3.2-2.1 6.4-4 9.9-5.7q1.1-0.5 2.2-1.1 0.8-0.4 1.6-0.8 0.1-61.5 0.2-123 0-7.3 0-14.6 0-1.4 0-2.9 0-23.4 0-46.8 0.1-24 0.1-48 0-14.9 0-29.7 0-10.2 0-20.3 0-5.9 0.1-11.8 0-5.3 0-10.7 0-2.9 0-5.7c-0.1-8-0.7-15.1-6.3-21.3-0.7-0.8-0.7-0.8-1.4-1.7-4-3.6-7.2-4.9-12.5-4.9q-1.8 0-3.6 0-1.9 0-3.9 0-2 0-4.1 0-5.7 0-11.4 0.1-6.2 0-12.5 0-12.1 0-24.2 0-13.9 0-27.9 0-37 0-73.9 0.1c-55 0.1-110 0.1-166.7 0.2zm-653 386q-2 1-4 2 0 1 0 2-1.5 0-3 0 0 1 0 2-0.8 0.4-1.6 0.8c-3 1.5-5.7 3.2-8.4 5.2q0 1 0 2-0.9 0.4-1.9 0.8c-2.4 1.1-2.4 1.1-3.1 4.2q-2 1-4 2-0.5 1.5-1 3-1 0-2 0c-1.8 2.3-3.4 4.5-5.1 6.9q-0.7 1.1-1.4 2.2c-3.5 5.1-6.6 10.4-9.5 15.8q-0.5 1-1.1 2.1c-3.7 7.2-6 14.7-7.6 22.7q-0.4 1.8-0.7 3.8c-0.8 3.9-0.8 3.9-0.6 9.5 36 0 71.9 0 109 0 0-34 0-68 0-103-19.5 0-36.9 7.2-54 16zm994.1 5.6c-1.3 1.4-1.3 1.4-1.1 3.4q-0.9 0.4-1.9 0.8c-2.4 1.1-2.4 1.1-3.1 4.2q-1 0-2 0c-11.4 13.3-18.8 30.5-19 48q0 1.4 0 2.8-0.1 8.2-0.1 16.3 0 1.4 0 2.8c-0.1 2.1-0.1 2.1 1.1 3.1q3.5 0.1 6.9 0.1 1.1 0 2.2 0 3.7 0 7.4 0 2.7 0 5.3 0 7.2 0 14.4 0 7.6 0 15.1 0 14.2 0 28.5 0 16.2 0 32.4 0 33.4-0.1 66.8-0.1 0.1-5.7 0.1-11.4 0-1.6 0-3.2c0.1-15-2.8-28.2-9.5-41.5-0.6-1.2-1.2-2.3-1.8-3.5-3.1-5.9-6.8-10.8-11.3-15.6q-0.7-0.8-1.4-1.6c-2.5-2.7-4.7-4.9-8.1-6.2q0-1 0-2c-7-5.5-14.7-9.6-23-13q-1.1-0.5-2.3-1c-10-3.8-19.9-4.5-30.5-4.4q-3.3 0-6.6 0c-21.6 0-42.1 7.8-58.5 22zm-594.5 4.8q-1.3 0.4-2.6 0.8c-2 0.6-2 0.6-3 1.8q-2 0.5-4 0.9c-4.6 1-9 2.2-13.4 3.4q-2.4 0.7-4.7 1.3-1.2 0.4-2.5 0.7-3.6 1.1-7.4 2.1-1.2 0.3-2.4 0.6-2.3 0.7-4.6 1.3c-6.1 1.7-6.1 1.7-12 3.7-1.5 2.9-1.1 5.5-1.1 8.8q0 1.1 0 2.1 0 3.6 0 7.2 0 2.5 0 5.1 0 7 0 13.9 0 7.3 0 14.5 0 12.2 0 24.4 0 14.1 0 28.2 0 12.1 0 24.2 0 7.3 0 14.5 0 6.8 0 13.6 0 2.5 0 5 0 3.4 0 6.8 0 1.9 0 3.9c-0.2 2.7-0.2 2.7 1.1 3.8 23.1 0 46.2 0 70 0 0-64 0-128 0-194-7.1-0.1-7.1-0.1-13.4 1.4zm-117.2 33.2c-3 1-5.9 1.8-8.9 2.4-2.9 0.6-5.6 1.3-8.4 2.3-5.4 1.9-10.9 3.3-16.5 4.8-9.8 2.2-9.8 2.2-17.6 7.9-0.4 2.7-0.4 2.7-0.4 5.8q0 1.7 0 3.6 0 2 0.1 4 0 2.1 0 4.2 0 5.7 0 11.4 0 5.9 0 11.9 0 11.3 0.1 22.6 0 15.2 0.1 30.5 0 24 0.1 48c23.4 0 46.9 0 71 0 0-54.1 0-108.2 0-164-6.8 0-13.2 2.4-19.6 4.6zm-339.4 83.4c-0.1 11.4-0.2 22.9-0.3 34.6-0.1 3.6-0.1 7.2-0.2 10.9 0 3.3 0 3.3 0 6.5q0 2.2 0 4.3-0.1 3.3-0.1 6.6 0 1.8 0 3.7c0.6 3.4 1.5 5.7 3.9 8.3 3.6 2.4 7.8 1.9 12 1.8 1.6 0 1.6 0 3.1 0q5.2 0 10.3-0.1 3.5 0 7.1 0 9.3-0.1 18.7-0.2 11.2-0.1 22.4-0.1c11.4-0.1 22.7-0.2 34.1-0.3 0-25.1 0-50.2 0-76-36.6 0-73.3 0-111 0zm710 0c0 25.1 0 50.2 0 76 90.4 0 180.8 0 274 0 0-25.1 0-50.2 0-76-90.4 0-180.8 0-274 0zm314 0c0 25.1 0 50.2 0 76q34.1 0.2 68.2 0.3 15.8 0.1 31.7 0.2 13.8 0 27.5 0.1 7.4 0 14.7 0 6.8 0.1 13.7 0.1 2.5 0 5.1 0 3.4 0.1 6.9 0c1.9 0 1.9 0 3.9 0 4.2-0.5 4.2-0.5 8.3-6.7 0-23.1 0-46.2 0-70-59.4 0-118.8 0-180 0z"/>
	<path id="Layer" fill-rule="evenodd" class="s0" d="m828.2 666.7q1.2 0 2.4 0 4.2 0 8.3 0 2.9 0 5.9 0 8-0.1 16-0.1 5 0 10 0 17.4 0 34.9 0 16.3 0 32.5-0.1 14-0.1 28-0.1 8.3 0 16.7 0 7.8 0 15.7 0 2.8 0 5.7 0c18.7-0.2 18.7-0.2 26.7 5.6q1 0.7 2.1 1.5c6.4 4.9 10.4 11.6 11.9 19.5 0.3 4.4 0.3 8.7 0.3 13.1q0 1.9 0 3.8 0 4 0 8 0 5 0.1 10.1 0 4.9 0 9.8 0 1.8 0 3.6c-0.1 8.3-1.4 14.3-5.4 21.6q-1 0-2 0-0.4 0.9-0.8 1.8c-2.9 5.3-8.7 9.1-14.2 11.2-9.5 2.5-19.1 2.3-28.8 2.3q-2.6 0-5.3 0-7.2 0-14.4 0-7.5 0-15.1 0-12.7 0-25.3 0-14.7-0.1-29.3 0-12.6 0-25.2 0-7.5 0-15 0-7 0-14.1 0-2.6 0-5.1 0c-15.4 0-27.9-0.5-40.1-10.6-8.6-10.4-9.5-19.2-9.4-32.4q0-1.6 0-3.3 0-3.5 0-7 0-5.3 0-10.6 0-3.4 0-6.7 0-1.6 0-3.2c0-15.5 0-15.5 3.7-21.5q0.6-1.1 1.3-2.3c0.6-0.8 0.6-0.8 1.1-1.7q1 0 2 0 0.4-0.9 0.7-1.8c1.6-2.6 3.1-3.7 5.6-5.3q1.1-0.8 2.3-1.5c5.2-3 9.6-3.7 15.6-3.7zm7.8 39.3c0 10.2 0 20.5 0 31 55.8 0 111.5 0 169 0 0-10.2 0-20.5 0-31-55.8 0-111.5 0-169 0z"/>
	<path id="Layer" fill-rule="evenodd" class="s0" d="m841.3 808.4q2.9 0 5.8-0.1 7.8 0 15.6 0.1 8.2 0 16.4 0 13.7 0 27.5 0 15.9 0.1 31.7 0 15.3 0 30.6 0 6.5 0 13 0 7.7 0 15.3 0.1 2.8 0 5.6 0c17.7-0.1 17.7-0.1 25.2 4.5q1.8 0.9 3.7 1.7c4.2 2.5 6.7 6.3 9.3 10.3 1 1.5 1 1.5 2 3 2.6 6.6 2.3 13.2 2.3 20.2 0 1.9 0 1.9 0.1 3.9q0 4 0 8.1 0 5.1 0 10.3 0.1 4.9 0.1 9.9 0 1.8 0 3.6c0 9.1-1.5 17-7.5 24q-1 0-2 0-0.5 1.5-1 3-1 0-2 0 0 1 0 2c-1.4 1.2-1.4 1.2-3.4 2.5q-1 0.6-2 1.3c-9.4 4.3-19.9 3.5-30 3.5q-2.8 0-5.6 0-7.6 0-15.2 0-7.9 0-15.9 0-13.3 0-26.7 0-15.4-0.1-30.8 0-13.3 0-26.5 0-7.9 0-15.8 0-7.5 0-14.9 0-2.7 0-5.5 0c-14.5 0-25.6-0.5-36.6-11.1-8.3-9.3-8.3-18.9-8.3-30.8q0-1.6 0-3.3 0-3.5 0-6.9 0-5.3 0-10.6 0-3.4 0-6.8 0-1.5-0.1-3.1c0.1-10.9 1.4-19.1 8.3-27.7q0.6-0.8 1.3-1.7c9.2-10.6 23.2-10 36-9.9zm-5.3 39.6c0 10.6 0 21.1 0 32q32.8 0 65.7 0 15.2 0.1 30.4 0.1 13.3 0 26.6 0 7.1 0 14.1 0 6.6 0 13.2 0 2.4 0 4.9 0 3.3 0 6.6 0c1.9 0 1.9 0 3.8 0 2.6 0.2 2.6 0.2 3.7-1.1q0.1-3.3 0.1-6.6 0-1 0-2 0-2.1 0-4.2 0-3.3 0-6.5 0-2 0-4.1c0-1.8 0-1.8 0-3.8 0.2-2.7 0.2-2.7-1.1-3.8q-3.3-0.1-6.5-0.1c-1 0-1 0-2.1 0q-3.5 0-6.9 0-2.5 0-5 0-6.8 0-13.5 0-7.1 0-14.1 0-13.4 0-26.8 0-15.2 0-30.4 0-31.4 0.1-62.7 0.1z"/>
	<path id="Layer" fill-rule="evenodd" class="s0" d="m832.7 952.9q1.9-0.1 3.9-0.1 2.1 0 4.2 0 2.1 0 4.3 0 4.5 0 9.1 0 5.7 0 11.5 0 4.5 0 9 0 2.1 0 4.2 0c13.4-0.1 23.4 0.7 34.1 9.2 8.7 9.1 10.3 21.8 10.3 33.9q0 1.3 0 2.7 0 2.8 0 5.7 0 4.3 0.1 8.6c0.1 30 0.1 30-9.4 40.1-7.2 6.7-12.7 10.3-22.8 10.3-1.1 0-1.1 0-2.3 0q-3.8 0.1-7.5 0.1-2.7 0-5.3 0-5.6 0-11.1 0-7.1 0-14.1 0.1-5.5 0.1-11 0.1-2.6 0-5.2 0c-9.5 0.1-17.6 0-25.7-5.6q0-1 0-2c-1-0.4-1-0.4-1.9-0.8-2.1-1.2-2.1-1.2-3.1-4.2q-1 0-2 0-1.2-2-2.4-4-0.7-1.1-1.4-2.2c-3-6.9-2.4-15-2.4-22.4q0-1.6 0-3.3 0-3.5 0-6.9 0-5.3 0-10.6 0-3.4 0-6.7 0-1.6-0.1-3.2c0.1-11.7 1.9-20.4 9.3-29.7 7.7-7.4 17.4-9.1 27.7-9.1zm3.3 40.1c0 10.2 0 20.5 0 31 15.2 0 30.4 0 46 0 0-10.2 0-20.5 0-31-15.2 0-30.4 0-46 0z"/>
	<path id="Layer" class="s0" d="m386 853.4q1 0.8 2 1.6 0 1 0 2 1.5 0.5 3 1 0 1 0 2 1 0 2 0c3.1 7.5 3.7 12.4 0.9 20.1-6.6 10.2-17.4 12.9-28.5 15.9-3.7 1.1-7.3 2.5-10.9 4-6.1 2.4-12.5 4.1-18.9 6-5 1.5-10 3.1-14.9 5.1-8.3 3.4-14.6 4.7-23.3 1.6-4.8-2.5-8.4-5.6-10.4-10.7-0.3-3.5-0.3-3.5-0.3-7.4q0-2-0.1-4c0.4-3.7 1.1-5.7 3.4-8.6q1 0 2 0 0.5-1.5 1-3c2.1-1.3 2.1-1.3 4.7-2.6q1.3-0.6 2.7-1.2c3.6-1.6 7.1-3.1 10.9-4.1 3.3-1 6.4-2.1 9.5-3.3q2.7-1 5.4-1.7c4.2-1.2 8.3-2.6 12.5-4q2.4-0.8 4.8-1.6c1.1-0.4 1.1-0.4 2.3-0.8q5.8-1.9 11.7-3.8c2.4-0.8 2.4-0.8 4.5-1.8 6.9-3.2 17-4 24-0.7z"/>
</svg>